<svg width="28" height="28" viewBox="0 0 28 28" fill="none" xmlns="http://www.w3.org/2000/svg">
<g filter="url(#filter0_d_577_87)">
<rect x="4" width="20" height="20" rx="7" fill="#E4E4E4"/>
<path d="M19.9858 5.71706L18.8874 4.61858C18.3855 4.11671 17.569 4.11674 17.0671 4.61858C16.5946 5.09114 9.37739 12.3089 8.89508 12.7912C8.8437 12.8426 8.80928 12.9109 8.79702 12.9777L8.24782 15.9436C8.22654 16.0586 8.26319 16.1767 8.34588 16.2594C8.42867 16.3421 8.5468 16.3787 8.66165 16.3574L11.6273 15.8082C11.6958 15.7954 11.7632 15.7606 11.8137 15.7101L19.9858 7.53744C20.4888 7.03441 20.4889 6.22016 19.9858 5.71706ZM9.0402 15.565L9.37242 13.7709L10.8342 15.2327L9.0402 15.565ZM11.5626 14.9568L9.64837 13.0424L16.6372 6.05297L18.5515 7.96739L11.5626 14.9568ZM19.4836 7.03524L19.0537 7.46519L17.1394 5.55077L17.5693 5.12083C17.7942 4.89588 18.1602 4.89585 18.3852 5.12083L19.4836 6.21931C19.7091 6.44481 19.7091 6.80972 19.4836 7.03524Z" fill="white"/>
</g>
<defs>
<filter id="filter0_d_577_87" x="0" y="0" width="28" height="28" filterUnits="userSpaceOnUse" color-interpolation-filters="sRGB">
<feFlood flood-opacity="0" result="BackgroundImageFix"/>
<feColorMatrix in="SourceAlpha" type="matrix" values="0 0 0 0 0 0 0 0 0 0 0 0 0 0 0 0 0 0 127 0" result="hardAlpha"/>
<feOffset dy="4"/>
<feGaussianBlur stdDeviation="2"/>
<feComposite in2="hardAlpha" operator="out"/>
<feColorMatrix type="matrix" values="0 0 0 0 0 0 0 0 0 0 0 0 0 0 0 0 0 0 0.25 0"/>
<feBlend mode="normal" in2="BackgroundImageFix" result="effect1_dropShadow_577_87"/>
<feBlend mode="normal" in="SourceGraphic" in2="effect1_dropShadow_577_87" result="shape"/>
</filter>
</defs>
</svg>
