<svg width="93" height="27" viewBox="0 0 93 27" fill="none" xmlns="http://www.w3.org/2000/svg">
<rect width="93" height="26.687" rx="13.3435" fill="black"/>
<path d="M20.7228 10.4752V8.24924H24.6008V18.4692H22.1088V10.4752H20.7228ZM28.9545 15.4732C29.0945 16.2106 29.5238 16.5792 30.2425 16.5792C30.7371 16.5792 31.0871 16.3599 31.2925 15.9212C31.4978 15.4826 31.6005 14.7686 31.6005 13.7792C31.3951 14.0686 31.1151 14.2926 30.7605 14.4512C30.4058 14.6099 30.0091 14.6892 29.5705 14.6892C28.9731 14.6892 28.4411 14.5679 27.9745 14.3252C27.5078 14.0732 27.1391 13.7046 26.8685 13.2192C26.6071 12.7246 26.4765 12.1272 26.4765 11.4272C26.4765 10.7366 26.6165 10.1346 26.8965 9.62124C27.1858 9.1079 27.5918 8.71124 28.1145 8.43124C28.6465 8.15124 29.2718 8.01124 29.9905 8.01124C31.3718 8.01124 32.3378 8.44057 32.8885 9.29924C33.4391 10.1579 33.7145 11.4226 33.7145 13.0932C33.7145 14.3066 33.6025 15.3099 33.3785 16.1032C33.1638 16.8872 32.7951 17.4846 32.2725 17.8952C31.7591 18.3059 31.0545 18.5112 30.1585 18.5112C29.4491 18.5112 28.8425 18.3712 28.3385 18.0912C27.8438 17.8112 27.4611 17.4426 27.1905 16.9852C26.9291 16.5279 26.7798 16.0239 26.7425 15.4732H28.9545ZM30.1165 12.7992C30.5085 12.7992 30.8211 12.6826 31.0545 12.4492C31.2878 12.2066 31.4045 11.8799 31.4045 11.4692C31.4045 11.0212 31.2831 10.6759 31.0405 10.4332C30.7978 10.1906 30.4711 10.0692 30.0605 10.0692C29.6498 10.0692 29.3231 10.1952 29.0805 10.4472C28.8471 10.6899 28.7305 11.0259 28.7305 11.4552C28.7305 11.8566 28.8471 12.1832 29.0805 12.4352C29.3231 12.6779 29.6685 12.7992 30.1165 12.7992ZM35.1317 13.2192C35.1317 11.6139 35.4397 10.3492 36.0557 9.42524C36.6811 8.50124 37.6844 8.03924 39.0657 8.03924C40.4471 8.03924 41.4457 8.50124 42.0617 9.42524C42.6871 10.3492 42.9997 11.6139 42.9997 13.2192C42.9997 14.8432 42.6871 16.1172 42.0617 17.0412C41.4457 17.9652 40.4471 18.4272 39.0657 18.4272C37.6844 18.4272 36.6811 17.9652 36.0557 17.0412C35.4397 16.1172 35.1317 14.8432 35.1317 13.2192ZM40.6477 13.2192C40.6477 12.2766 40.5451 11.5532 40.3397 11.0492C40.1344 10.5359 39.7097 10.2792 39.0657 10.2792C38.4217 10.2792 37.9971 10.5359 37.7917 11.0492C37.5864 11.5532 37.4837 12.2766 37.4837 13.2192C37.4837 13.8539 37.5211 14.3812 37.5957 14.8012C37.6704 15.2119 37.8197 15.5479 38.0437 15.8092C38.2771 16.0612 38.6177 16.1872 39.0657 16.1872C39.5137 16.1872 39.8497 16.0612 40.0737 15.8092C40.3071 15.5479 40.4611 15.2119 40.5357 14.8012C40.6104 14.3812 40.6477 13.8539 40.6477 13.2192ZM44.4605 16.6492V14.7172L48.8845 8.38924H51.5585V14.5772H52.7065V16.6492H51.5585V18.4692H49.1645V16.6492H44.4605ZM49.3325 11.0212L46.9805 14.5772H49.3325V11.0212Z" fill="white"/>
<g clip-path="url(#clip0_577_100)">
<path d="M69.6145 11.1199C68.6858 11.1199 67.9297 11.876 67.9297 12.8046V18.196C67.9297 19.1246 68.6858 19.8807 69.6145 19.8807H71.6362C72.0157 19.8807 72.3647 19.7527 72.6471 19.5397V11.1199H69.6145Z" fill="white"/>
<path d="M84.1036 13.647C84.1036 13.242 83.9433 12.8646 83.6649 12.5863C83.9796 12.2419 84.14 11.7803 84.0962 11.2998C84.0174 10.4432 83.2457 9.77202 82.3387 9.77202H78.1759C78.3821 9.14594 78.7123 7.99829 78.7123 7.07638C78.7123 5.61466 77.4703 4.38074 76.6906 4.38074C75.9904 4.38074 75.4903 4.77498 75.4688 4.79115C75.3893 4.85518 75.3428 4.95223 75.3428 5.05464V7.33987L73.4019 11.5444L73.321 11.5855V18.8085C73.8696 19.0673 74.5637 19.2068 75.0058 19.2068H81.1917C81.9256 19.2068 82.5678 18.7121 82.7187 18.0295C82.7962 17.6784 82.7511 17.3246 82.5968 17.0173C83.0948 16.7666 83.4297 16.2537 83.4297 15.6688C83.4297 15.4302 83.3751 15.2017 83.2714 14.9949C83.7694 14.7442 84.1036 14.2313 84.1036 13.647Z" fill="white"/>
</g>
<defs>
<clipPath id="clip0_577_100">
<rect width="16.1739" height="16.1739" fill="white" transform="translate(67.9297 4.04382)"/>
</clipPath>
</defs>
</svg>
