<svg width="50" height="50" viewBox="0 0 50 50" fill="none" xmlns="http://www.w3.org/2000/svg">
<rect width="50" height="50" rx="13" fill="black"/>
<path d="M19.375 14.7266V15.4883C18.6523 15.5566 18.1543 15.6592 17.8809 15.7959C17.6172 15.9326 17.4854 16.2451 17.4854 16.7334C17.4854 16.8604 17.5 17.0117 17.5293 17.1875C17.5586 17.3535 17.6025 17.5293 17.6611 17.7148L21.1328 28.2031H21.3818L24.8242 19.4141C24.8438 19.3652 24.7021 18.9209 24.3994 18.0811C24.1064 17.2412 23.9014 16.7236 23.7842 16.5283C23.5596 16.1768 23.3105 15.9277 23.0371 15.7812C22.7734 15.6348 22.29 15.5371 21.5869 15.4883V14.7266H30.9619V15.4883C30.1025 15.5566 29.5264 15.6494 29.2334 15.7666C28.9502 15.8838 28.8086 16.1475 28.8086 16.5576C28.8086 16.6553 28.8379 16.8457 28.8965 17.1289C28.9648 17.4023 29.0771 17.7832 29.2334 18.2715L32.3535 27.9248H32.5586L35.8252 18.0664C35.8838 17.8906 35.9326 17.7051 35.9717 17.5098C36.0107 17.3047 36.0303 17.0801 36.0303 16.8359C36.0303 16.2793 35.8203 15.9082 35.4004 15.7227C35.1465 15.6055 34.6631 15.5273 33.9502 15.4883V14.7266H39.4434V15.4883C38.9844 15.5566 38.6279 15.6738 38.374 15.8398C37.9346 16.1426 37.5928 16.665 37.3486 17.4072L31.3428 35.498H30.5518L25.5127 21.4355H25.3076L19.8145 35.498H18.9795L12.6367 17.4072C12.3633 16.6162 12.0898 16.1133 11.8164 15.8984C11.543 15.6836 11.1182 15.5371 10.542 15.459V14.7266H19.375Z" fill="white"/>
</svg>
