<svg width="22" height="22" viewBox="0 0 22 22" fill="none" xmlns="http://www.w3.org/2000/svg">
<g id="microphone " clip-path="url(#clip0_1_1337)">
<path id="Vector" d="M18.2075 10.0024V6.9929C18.2075 6.7577 18.0168 6.56697 17.7816 6.56697C17.5464 6.56697 17.3557 6.7577 17.3557 6.9929V7.15722H15.9278V4.99876C15.9278 2.24242 13.6802 0 10.9175 0H10.8898C8.12716 0 5.87954 2.24242 5.87954 4.99876V7.15722H4.45171V6.9929C4.45171 6.7577 4.26098 6.56697 4.02578 6.56697C3.79058 6.56697 3.59985 6.7577 3.59985 6.9929V10.0024C3.59985 13.4683 6.04254 16.3756 9.30063 17.1012V18.511H6.84461C5.94373 18.511 5.21079 19.2439 5.21079 20.1449V21.3815C5.21079 21.6167 5.40152 21.8074 5.63672 21.8074H16.1707C16.4059 21.8074 16.5966 21.6167 16.5966 21.3815V20.1449C16.5966 19.2439 15.8636 18.511 14.9628 18.511H12.5068V17.1012C15.7649 16.3756 18.2075 13.4683 18.2075 10.0024ZM6.7314 4.99876C6.7314 2.71217 8.59687 0.851853 10.8898 0.851853H10.9175C13.2105 0.851853 15.076 2.71217 15.076 4.99876V10.1675C15.076 12.4542 13.2105 14.3144 10.9175 14.3144H10.8898C8.59687 14.3144 6.7314 12.4541 6.7314 10.1675V4.99876ZM4.45171 10.0024V8.00908H5.87954V10.1676C5.87954 12.9239 8.12716 15.1663 10.8898 15.1663H10.9175C13.6802 15.1663 15.9278 12.9239 15.9278 10.1676V8.00908H17.3557V10.0024C17.3557 13.543 14.4674 16.4235 10.9172 16.4235H10.8901C7.33996 16.4235 4.45171 13.543 4.45171 10.0024ZM15.7447 20.1449V20.9556H6.06265V20.1449C6.06265 19.7137 6.41344 19.3629 6.84461 19.3629H14.9628C15.3939 19.3628 15.7447 19.7137 15.7447 20.1449ZM11.6549 18.511H10.1525V17.2384C10.3951 17.2628 10.6412 17.2754 10.8902 17.2754H10.9172C11.1662 17.2754 11.4123 17.2628 11.6549 17.2384V18.511Z" fill="#C4C4C4"/>
<path id="Vector_2" d="M12.942 6.06011H13.5963C13.8315 6.06011 14.0222 5.86938 14.0222 5.63418C14.0222 5.39898 13.8315 5.20825 13.5963 5.20825H12.942C12.7068 5.20825 12.5161 5.39898 12.5161 5.63418C12.5161 5.86938 12.7068 6.06011 12.942 6.06011Z" fill="#C4C4C4"/>
<path id="Vector_3" d="M12.942 9.95805H13.5963C13.8315 9.95805 14.0222 9.76732 14.0222 9.53213C14.0222 9.29693 13.8315 9.1062 13.5963 9.1062H12.942C12.7068 9.1062 12.5161 9.29693 12.5161 9.53213C12.5161 9.76732 12.7068 9.95805 12.942 9.95805Z" fill="#C4C4C4"/>
<path id="Vector_4" d="M12.942 8.00908H13.5963C13.8315 8.00908 14.0222 7.81835 14.0222 7.58315C14.0222 7.34796 13.8315 7.15723 13.5963 7.15723H12.942C12.7068 7.15723 12.5161 7.34796 12.5161 7.58315C12.5161 7.81835 12.7068 8.00908 12.942 8.00908Z" fill="#C4C4C4"/>
<path id="Vector_5" d="M8.21108 8.00908H8.8653C9.1005 8.00908 9.29123 7.81835 9.29123 7.58315C9.29123 7.34796 9.1005 7.15723 8.8653 7.15723H8.21108C7.97589 7.15723 7.78516 7.34796 7.78516 7.58315C7.78516 7.81835 7.97589 8.00908 8.21108 8.00908Z" fill="#C4C4C4"/>
<path id="Vector_6" d="M8.21108 6.06011H8.8653C9.1005 6.06011 9.29123 5.86938 9.29123 5.63418C9.29123 5.39898 9.1005 5.20825 8.8653 5.20825H8.21108C7.97589 5.20825 7.78516 5.39898 7.78516 5.63418C7.78516 5.86938 7.97589 6.06011 8.21108 6.06011Z" fill="#C4C4C4"/>
<path id="Vector_7" d="M8.21108 9.95805H8.8653C9.1005 9.95805 9.29123 9.76732 9.29123 9.53213C9.29123 9.29693 9.1005 9.1062 8.8653 9.1062H8.21108C7.97589 9.1062 7.78516 9.29693 7.78516 9.53213C7.78516 9.76732 7.97589 9.95805 8.21108 9.95805Z" fill="#C4C4C4"/>
</g>
<defs>
<clipPath id="clip0_1_1337">
<rect width="21.8074" height="21.8074" fill="white"/>
</clipPath>
</defs>
</svg>
