<svg width="30" height="22" viewBox="0 0 30 22" fill="none" xmlns="http://www.w3.org/2000/svg">
<path d="M9.375 0.726562V1.48828C8.65234 1.55664 8.1543 1.65918 7.88086 1.7959C7.61719 1.93262 7.48535 2.24512 7.48535 2.7334C7.48535 2.86035 7.5 3.01172 7.5293 3.1875C7.55859 3.35352 7.60254 3.5293 7.66113 3.71484L11.1328 14.2031H11.3818L14.8242 5.41406C14.8438 5.36523 14.7021 4.9209 14.3994 4.08105C14.1064 3.24121 13.9014 2.72363 13.7842 2.52832C13.5596 2.17676 13.3105 1.92773 13.0371 1.78125C12.7734 1.63477 12.29 1.53711 11.5869 1.48828V0.726562H20.9619V1.48828C20.1025 1.55664 19.5264 1.64941 19.2334 1.7666C18.9502 1.88379 18.8086 2.14746 18.8086 2.55762C18.8086 2.65527 18.8379 2.8457 18.8965 3.12891C18.9648 3.40234 19.0771 3.7832 19.2334 4.27148L22.3535 13.9248H22.5586L25.8252 4.06641C25.8838 3.89062 25.9326 3.70508 25.9717 3.50977C26.0107 3.30469 26.0303 3.08008 26.0303 2.83594C26.0303 2.2793 25.8203 1.9082 25.4004 1.72266C25.1465 1.60547 24.6631 1.52734 23.9502 1.48828V0.726562H29.4434V1.48828C28.9844 1.55664 28.6279 1.67383 28.374 1.83984C27.9346 2.14258 27.5928 2.66504 27.3486 3.40723L21.3428 21.498H20.5518L15.5127 7.43555H15.3076L9.81445 21.498H8.97949L2.63672 3.40723C2.36328 2.61621 2.08984 2.11328 1.81641 1.89844C1.54297 1.68359 1.11816 1.53711 0.541992 1.45898V0.726562H9.375Z" fill="white"/>
</svg>
