<svg width="20" height="20" viewBox="0 0 20 20" fill="none" xmlns="http://www.w3.org/2000/svg">
<g id="Search icon">
<path id="Search icon_2" fill-rule="evenodd" clip-rule="evenodd" d="M12.4733 7.75913C12.4733 10.3957 10.3444 12.5183 7.73665 12.5183C5.12887 12.5183 3 10.3957 3 7.75913C3 5.12252 5.12887 3 7.73665 3C10.3444 3 12.4733 5.12252 12.4733 7.75913ZM11.8493 14.3324C10.6579 15.0837 9.24788 15.5183 7.73665 15.5183C3.46381 15.5183 0 12.0444 0 7.75913C0 3.47388 3.46381 0 7.73665 0C12.0095 0 15.4733 3.47388 15.4733 7.75913C15.4733 9.44236 14.9389 11.0004 14.0309 12.2719L19.4096 17.688L17.2956 19.8167L11.8493 14.3324Z" fill="#C4C4C4"/>
</g>
</svg>
